<svg width="30" height="30" viewBox="0 0 30 30" fill="none" xmlns="http://www.w3.org/2000/svg">
<g clip-path="url(#clip0_3_399)">
<path d="M15 8.07692C13.6307 8.07692 12.2922 8.48295 11.1537 9.24367C10.0153 10.0044 9.1279 11.0856 8.60391 12.3507C8.07992 13.6157 7.94282 15.0077 8.20995 16.3506C8.47708 17.6936 9.13644 18.9271 10.1046 19.8954C11.0729 20.8636 12.3064 21.5229 13.6494 21.7901C14.9923 22.0572 16.3843 21.9201 17.6493 21.3961C18.9144 20.8721 19.9956 19.9848 20.7563 18.8463C21.517 17.7078 21.9231 16.3693 21.9231 15C21.9212 13.1645 21.1912 11.4047 19.8932 10.1068C18.5953 8.80884 16.8355 8.07883 15 8.07692ZM15 19.6154C14.0872 19.6154 13.1948 19.3447 12.4358 18.8376C11.6768 18.3304 11.0853 17.6096 10.7359 16.7662C10.3866 15.9229 10.2952 14.9949 10.4733 14.0996C10.6514 13.2043 11.091 12.3819 11.7364 11.7364C12.3819 11.091 13.2043 10.6514 14.0996 10.4733C14.9949 10.2952 15.9229 10.3866 16.7662 10.7359C17.6096 11.0853 18.3304 11.6768 18.8376 12.4358C19.3447 13.1948 19.6154 14.0872 19.6154 15C19.6154 16.2241 19.1291 17.398 18.2636 18.2636C17.398 19.1291 16.2241 19.6154 15 19.6154ZM21.9231 0H8.07692C5.93549 0.00229071 3.88243 0.853986 2.36821 2.36821C0.853986 3.88243 0.00229071 5.93549 0 8.07692V21.9231C0.00229071 24.0645 0.853986 26.1176 2.36821 27.6318C3.88243 29.146 5.93549 29.9977 8.07692 30H21.9231C24.0645 29.9977 26.1176 29.146 27.6318 27.6318C29.146 26.1176 29.9977 24.0645 30 21.9231V8.07692C29.9977 5.93549 29.146 3.88243 27.6318 2.36821C26.1176 0.853986 24.0645 0.00229071 21.9231 0ZM27.6923 21.9231C27.6923 23.4532 27.0845 24.9206 26.0025 26.0025C24.9206 27.0845 23.4532 27.6923 21.9231 27.6923H8.07692C6.54683 27.6923 5.0794 27.0845 3.99746 26.0025C2.91552 24.9206 2.30769 23.4532 2.30769 21.9231V8.07692C2.30769 6.54683 2.91552 5.0794 3.99746 3.99746C5.0794 2.91552 6.54683 2.30769 8.07692 2.30769H21.9231C23.4532 2.30769 24.9206 2.91552 26.0025 3.99746C27.0845 5.0794 27.6923 6.54683 27.6923 8.07692V21.9231ZM24.2308 7.5C24.2308 7.84231 24.1293 8.17694 23.9391 8.46156C23.7489 8.74619 23.4786 8.96803 23.1623 9.09902C22.8461 9.23002 22.4981 9.2643 22.1623 9.19751C21.8266 9.13073 21.5182 8.96589 21.2762 8.72384C21.0341 8.48179 20.8693 8.17339 20.8025 7.83766C20.7357 7.50192 20.77 7.15392 20.901 6.83766C21.032 6.52141 21.2538 6.2511 21.5384 6.06092C21.8231 5.87074 22.1577 5.76923 22.5 5.76923C22.959 5.76923 23.3993 5.95158 23.7238 6.27616C24.0484 6.60074 24.2308 7.04097 24.2308 7.5Z" fill="black"/>
</g>
<defs>
<clipPath id="clip0_3_399">
<rect width="30" height="30" fill="white"/>
</clipPath>
</defs>
</svg>
