<svg width="30" height="30" viewBox="0 0 30 30" fill="none" xmlns="http://www.w3.org/2000/svg">
<path d="M28.4017 0.606229C28.1411 0.345921 27.8158 0.159758 27.4594 0.0669146C27.1029 -0.0259285 26.7282 -0.0220944 26.3737 0.0780218H26.3543L1.4982 7.61792C1.09467 7.73419 0.736011 7.97029 0.469742 8.29494C0.203472 8.61959 0.0421647 9.01746 0.00719687 9.43584C-0.027771 9.85421 0.065251 10.2733 0.273936 10.6377C0.482621 11.002 0.797116 11.2943 1.17575 11.4759L12.1728 16.8305L17.5211 27.818C17.6875 28.1729 17.952 28.4728 18.2833 28.6822C18.6147 28.8916 18.9991 29.0019 19.3911 29C19.4507 29 19.5102 28.9974 19.5698 28.9922C19.988 28.9584 20.3858 28.7975 20.7098 28.5311C21.0339 28.2648 21.2687 27.9057 21.3828 27.5021L28.9196 2.65303C28.9196 2.64656 28.9196 2.64009 28.9196 2.63361C29.0211 2.28013 29.0266 1.90603 28.9355 1.54973C28.8445 1.19342 28.6602 0.867774 28.4017 0.606229ZM19.4028 26.9092L19.3963 26.9273V26.9182L14.2085 16.2634L20.4245 10.0492C20.6106 9.85342 20.7128 9.59268 20.7093 9.32261C20.7059 9.05254 20.597 8.79451 20.406 8.60352C20.2149 8.41254 19.9568 8.30371 19.6867 8.30025C19.4165 8.2968 19.1557 8.39898 18.9599 8.58501L12.7439 14.7992L2.08224 9.61294H2.07318H2.09131L26.9357 2.07175L19.4028 26.9092Z" fill="black"/>
</svg>
