<svg width="40" height="40" viewBox="0 0 40 40" fill="none" xmlns="http://www.w3.org/2000/svg">
<path d="M39.4437 0.437637C39.2224 0.223571 38.9531 0.0812034 38.6649 0.0258715C38.3766 -0.0294604 38.0804 0.00434103 37.808 0.123634L1.61899 15.9858C1.10611 16.2092 0.671901 16.6131 0.381726 17.1368C0.0915504 17.6605 -0.0388809 18.2755 0.0100684 18.8894C0.0590176 19.5033 0.284698 20.0828 0.653133 20.5406C1.02157 20.9984 1.51282 21.3098 2.05292 21.4278L11.4296 23.4898V35.2C11.4278 35.8378 11.597 36.4616 11.9154 36.9904C12.2338 37.5192 12.6867 37.9288 13.2153 38.166C13.7432 38.4074 14.3237 38.4653 14.8813 38.3323C15.4389 38.1993 15.9479 37.8814 16.3421 37.42L20.8635 32.1679L28.0367 39.2C28.5542 39.7141 29.2217 39.9987 29.9134 40C30.2166 39.9997 30.5178 39.9464 30.8063 39.842C31.2776 39.6745 31.7015 39.3716 32.0358 38.9635C32.3701 38.5554 32.6031 38.0563 32.7116 37.516L39.9598 2.19965C40.0246 1.88115 40.0108 1.54889 39.9199 1.23848C39.829 0.928082 39.6644 0.651241 39.4437 0.437637ZM28.5259 7.6377L12.5278 20.4698L3.67077 18.5238L28.5259 7.6377ZM14.2868 35.2V25.7039L18.7135 30.0519L14.2868 35.2ZM29.917 36.8L15.1528 22.2998L36.4027 5.24168L29.917 36.8Z" fill="black"/>
</svg>
